<?xml version="1.0" encoding="utf-8"?>
<!-- Generator: Adobe Illustrator 28.2.0, SVG Export Plug-In . SVG Version: 6.00 Build 0)  -->
<svg version="1.1" id="Layer_1" xmlns="http://www.w3.org/2000/svg" xmlns:xlink="http://www.w3.org/1999/xlink" x="0px" y="0px"
	 viewBox="0 0 220.87 220.87" style="enable-background:new 0 0 220.87 220.87;" xml:space="preserve">
<style type="text/css">
	.st0{fill:#0D183D;}
	.st1{fill:#FFCC00;}
	.st2{fill:#F3B317;}
	.st3{opacity:0.5;}
	.st4{fill:#FFFFFF;}
</style>
<g>
	<path class="st0" d="M110.44,220.87L110.44,220.87C49.44,220.87,0,171.43,0,110.44v0C0,49.44,49.44,0,110.44,0h0
		c60.99,0,110.44,49.44,110.44,110.44v0C220.87,171.43,171.43,220.87,110.44,220.87z"/>
	<g>
		<path class="st1" d="M193.16,65.47c-19.04,0-38.07,0-57.1,0c-2.8,0-3.3,0.4-4.4,3.5c-5.73,16.2-11.45,32.4-17.17,48.59
			c-0.19,0.54-0.37,1.09-0.5,1.65c-0.26,1.13,0.06,1.66,1.03,1.77c0.38,0.04,0.76,0.02,1.15,0.02c11.8,0,23.59,0,35.39,0
			c0.38,0,0.77-0.02,1.15,0.03c1.06,0.15,1.53,0.84,1.25,2.06c-0.29,1.28-0.74,2.52-1.18,3.74c-0.78,2.19-2.15,3.22-4.18,3.19
			c-3.76-0.07-7.52-0.02-11.28-0.02c-8.59,0-17.19,0.02-25.78-0.01c-0.35,0-0.67,0.02-0.98,0.09h-23.2c-9.89,0-19.79,0-29.67,0
			c-0.42,0-0.84,0.02-1.25-0.02c-1.11-0.08-1.45-0.62-1.1-1.88c0.41-1.42,0.93-2.79,1.37-4.2c0.66-2.09,1.81-3.04,3.74-3.02
			c8.38,0.07,16.77,0.07,25.16,0.01c2.71-0.02,5.43-0.18,8.12-0.53c4.14-0.53,8.08-1.95,10.8-5.99c1.65-2.43,3.1-5.19,4.17-8.05
			c3.14-8.38,6.06-16.89,9.03-25.36c0.35-1,0.61-2.04,0.83-3.1c1.2-5.97-0.64-9.89-5.58-11.37c-2.27-0.68-4.67-1.05-7.01-1.06
			c-15.17-0.09-30.35-0.02-45.51-0.09c-1.93-0.01-3.03,0.95-3.75,3.01c-2.23,6.41-4.5,12.78-6.76,19.17
			c-0.89,2.53-0.61,3.03,1.65,3.04c11.63,0,23.24,0,34.87,0c0.38,0,0.76-0.02,1.15,0.03c1.19,0.15,1.56,0.76,1.18,2.11
			c-0.39,1.38-0.89,2.73-1.35,4.07c-0.68,1.94-1.84,2.83-3.66,2.82c-8.11-0.07-16.21-0.07-24.32-0.01
			c-2.68,0.02-5.35,0.21-8.02,0.49c-7,0.75-12.3,4.69-15.2,12.53c-3.47,9.36-6.72,18.82-10.03,28.25c-0.37,1.06-0.57,2.25-0.67,3.41
			c-0.46,5.03,1.33,8.19,5.5,9.79c2.78,1.06,5.66,1.29,8.56,1.29c7.86,0,15.73,0,23.59,0c8.46,0,16.91,0,25.37,0
			c0.02,0,0.02,0,0.03,0h39.51v-0.02c8.11,0,16.22,0.02,24.33-0.02c3.51-0.02,7-0.6,10.27-2.38c4.25-2.32,7.08-6.38,8.97-11.29
			c3.15-8.19,6.08-16.51,9.02-24.82c0.76-2.18,1.34-4.5,1.73-6.81c0.91-5.28-0.86-8.58-5.24-9.66c-2.09-0.52-4.27-0.71-6.41-0.72
			c-8.08-0.08-16.15-0.03-24.22-0.03c-0.37,0-0.74,0-1.27,0c0.91-2.67,1.81-5.15,2.61-7.68c0.32-1.01,0.73-1.36,1.65-1.35
			c11.66,0.05,23.32,0,34.97,0.06c1.86,0.01,2.97-0.85,3.68-2.9c2.21-6.42,4.5-12.78,6.75-19.17
			C195.85,65.94,195.58,65.47,193.16,65.47z"/>
		<path class="st2" d="M180.82,116.44c-0.04,0.15-0.09,0.29-0.14,0.44c-2.93,8.32-5.87,16.64-9.02,24.83
			c-1.89,4.9-4.71,8.97-8.97,11.28c-3.27,1.78-6.75,2.37-10.27,2.38c-8.11,0.04-16.22,0.02-24.32,0.02v0.02H88.58
			c-0.01,0-0.02,0.01-0.04,0.01H39.59c-2.9,0-5.78-0.22-8.56-1.29c-4.17-1.6-5.96-4.76-5.5-9.79c0.1-1.16,0.3-2.35,0.68-3.42
			c1.35-3.88,2.72-7.77,4.08-11.64c8.52,0.22,16.87,0.33,25.06,0.29c0.18,0.29,0.54,0.44,1.07,0.48c0.42,0.02,0.84,0.02,1.25,0.02
			h52.87c0.31-0.07,0.64-0.09,0.99-0.09c8.59,0.02,17.19,0.01,25.78,0.01c3.76,0,7.52-0.05,11.28,0.02c2.03,0.04,3.41-1,4.19-3.2
			c0.43-1.21,0.88-2.45,1.17-3.73c0.15-0.64,0.08-1.14-0.15-1.48c2.58-0.45,5.14-0.92,7.66-1.41
			C168.55,118.83,174.98,117.57,180.82,116.44z"/>
		<g class="st3">
			<path class="st4" d="M147.14,150.91c2.04,0.32,4.05,0.37,6.01,0.12c1.96-0.24,3.86-0.77,5.63-1.6c1.76-0.82,3.4-1.94,4.84-3.28
				c1.45-1.35,2.7-2.92,3.77-4.68c-0.51,2-1.56,3.88-2.94,5.48c-1.39,1.6-3.12,2.91-5.05,3.81c-1.94,0.9-4.06,1.38-6.17,1.41
				S149,151.81,147.14,150.91z"/>
		</g>
		<g class="st3">
			<path class="st4" d="M60.61,105.25c-2.04-0.32-4.05-0.37-6.01-0.12c-1.96,0.24-3.86,0.77-5.63,1.6c-1.76,0.82-3.4,1.94-4.84,3.28
				c-1.45,1.35-2.7,2.92-3.77,4.68c0.51-2,1.56-3.88,2.94-5.48c1.39-1.6,3.12-2.91,5.05-3.81c1.94-0.9,4.06-1.38,6.17-1.41
				C56.64,103.95,58.75,104.35,60.61,105.25z"/>
		</g>
	</g>
</g>
</svg>
